HIERARCHY
ROOT Hips
{
	OFFSET 0.000000 0.000000 0.000000
	CHANNELS 6 Xposition Yposition Zposition Zrotation Yrotation Xrotation 
	JOINT LHipJoint
	{
		OFFSET 0.000000 0.000000 0.000000
		CHANNELS 3 Zrotation Yrotation Xrotation
		JOINT LeftUpLeg
		{
			OFFSET 1.363060 -1.794630 0.839290
			CHANNELS 3 Zrotation Yrotation Xrotation
			JOINT LeftLeg
			{
				OFFSET 2.448110 -6.726130 0.000000
				CHANNELS 3 Zrotation Yrotation Xrotation
				JOINT LeftFoot
				{
					OFFSET 2.562200 -7.039590 0.000000
					CHANNELS 3 Zrotation Yrotation Xrotation
					JOINT LeftToeBase
					{
						OFFSET 0.157640 -0.433110 2.322550
						CHANNELS 3 Zrotation Yrotation Xrotation
						End Site
						{
							OFFSET 0.000000 0.000000 0.000000
						}
					}
				}
			}
		}
	}
	JOINT RHipJoint
	{
		OFFSET 0.000000 0.000000 0.000000
		CHANNELS 3 Zrotation Yrotation Xrotation
		JOINT RightUpLeg
		{
			OFFSET -1.305520 -1.794630 0.839290
			CHANNELS 3 Zrotation Yrotation Xrotation
			JOINT RightLeg
			{
				OFFSET -2.542530 -6.985550 0.000000
				CHANNELS 3 Zrotation Yrotation Xrotation
				JOINT RightFoot
				{
					OFFSET -2.568260 -7.056230 0.000000
					CHANNELS 3 Zrotation Yrotation Xrotation
					JOINT RightToeBase
					{
						OFFSET -0.164730 -0.452590 2.363150
						CHANNELS 3 Zrotation Yrotation Xrotation
						End Site
						{
							OFFSET 0.000000 0.000000 0.000000
						}
					}
				}
			}
		}
	}
	JOINT LowerBack
	{
		OFFSET 0.000000 0.000000 0.000000
		CHANNELS 3 Zrotation Yrotation Xrotation
		JOINT Spine
		{
			OFFSET 0.028270 2.035590 -0.193380
			CHANNELS 3 Zrotation Yrotation Xrotation
			JOINT Spine1
			{
				OFFSET 0.056720 2.048850 -0.042750
				CHANNELS 3 Zrotation Yrotation Xrotation
				JOINT Neck
				{
					OFFSET 0.000000 0.000000 0.000000
					CHANNELS 3 Zrotation Yrotation Xrotation
					JOINT Neck1
					{
						OFFSET -0.054170 1.746240 0.172020
						CHANNELS 3 Zrotation Yrotation Xrotation
						JOINT Head
						{
							OFFSET 0.104070 1.761360 -0.123970
							CHANNELS 3 Zrotation Yrotation Xrotation
							End Site
							{
								OFFSET 0.000000 0.000000 0.000000
							}
						}
					}
				}
				JOINT LeftShoulder
				{
					OFFSET 0.000000 0.000000 0.000000
					CHANNELS 3 Zrotation Yrotation Xrotation
					JOINT LeftArm
					{
						OFFSET 3.362410 1.200890 -0.311210
						CHANNELS 3 Zrotation Yrotation Xrotation
						JOINT LeftForeArm
						{
							OFFSET 4.983000 -0.000000 -0.000000
							CHANNELS 3 Zrotation Yrotation Xrotation
							JOINT LeftHand
							{
								OFFSET 3.483560 -0.000000 -0.000000
								CHANNELS 3 Zrotation Yrotation Xrotation
								JOINT LeftFingerBase
								{
									OFFSET 0.000000 0.000000 0.000000
									CHANNELS 3 Zrotation Yrotation Xrotation
									JOINT LeftHandIndex1
									{
										OFFSET 0.715260 -0.000000 -0.000000
										CHANNELS 3 Zrotation Yrotation Xrotation
										End Site
										{
											OFFSET 0.000000 0.000000 0.000000
										}
									}
								}
								JOINT LThumb
								{
									OFFSET 0.000000 0.000000 0.000000
									CHANNELS 3 Zrotation Yrotation Xrotation
									End Site
									{
										OFFSET 0.000000 0.000000 0.000000
									}
								}
							}
						}
					}
				}
				JOINT RightShoulder
				{
					OFFSET 0.000000 0.000000 0.000000
					CHANNELS 3 Zrotation Yrotation Xrotation
					JOINT RightArm
					{
						OFFSET -3.136600 1.374050 -0.404650
						CHANNELS 3 Zrotation Yrotation Xrotation
						JOINT RightForeArm
						{
							OFFSET -5.241900 -0.000000 -0.000000
							CHANNELS 3 Zrotation Yrotation Xrotation
							JOINT RightHand
							{
								OFFSET -3.444170 -0.000000 -0.000000
								CHANNELS 3 Zrotation Yrotation Xrotation
								JOINT RightFingerBase
								{
									OFFSET 0.000000 0.000000 0.000000
									CHANNELS 3 Zrotation Yrotation Xrotation
									JOINT RightHandIndex1
									{
										OFFSET -0.622530 -0.000000 -0.000000
										CHANNELS 3 Zrotation Yrotation Xrotation
										End Site
										{
											OFFSET 0.000000 0.000000 0.000000
										}
									}
								}
								JOINT RThumb
								{
									OFFSET 0.000000 0.000000 0.000000
									CHANNELS 3 Zrotation Yrotation Xrotation
									End Site
									{
										OFFSET 0.000000 0.000000 0.000000
									}
								}
							}
						}
					}
				}
			}
		}
	}
}
MOTION
Frames: 11
Frame Time: 0.008333
10.833566 15.300580 15.179833 174.953113 -0.685728 -163.851186 14.563670 6.018615 5.768273 7.230270 -20.631723 -62.801950 4.070736 16.332520 40.691392 4.418021 4.501517 -27.656557 5.919400 -14.349800 -44.657500 -18.523937 -6.755818 -9.959754 18.905456 6.497766 12.847036 -8.353472 -9.410174 44.512513 -7.208842 9.915188 -54.536138 -7.829400 15.992300 -51.945800 5.833075 0.431445 -11.365314 3.149517 -0.361463 -1.506514 -4.903047 -0.411927 13.487052 -8.179081 3.720438 -1.254128 2.019891 4.336477 23.987787 -0.010100 2.671400 5.014200 17.768467 -2.048518 1.563929 -97.402524 6.104081 8.544634 19.433454 -20.819143 -3.219173 -0.262852 0.328170 -4.362462 19.700613 -12.371879 -4.568800 -7.125000 0.000000 0.000000 -5.078400 16.504200 3.440100 -12.623152 1.843541 0.788511 88.200395 -3.096907 19.094923 -46.757537 51.396506 -22.043580 0.142818 -0.036769 -9.282697 -6.229670 -56.048621 5.282600 7.125000 0.000000 0.000000 79.572600 -74.251900 -63.095600 
10.710570 15.261422 15.118386 174.738471 -0.854174 -163.135322 14.300035 5.954825 5.687269 7.025331 -19.998921 -64.850704 4.487257 17.028565 42.870993 3.878331 3.137445 -27.158927 5.889100 -14.320000 -44.535000 -18.362420 -6.655909 -9.977751 17.912318 6.475151 12.452782 -8.321121 -9.372547 44.360007 -7.059958 9.942006 -54.112126 -7.792600 15.964500 -51.812000 4.701602 0.152136 -10.978731 3.172936 -0.495831 -1.370605 -4.183368 -0.557414 13.312618 -8.419398 3.622208 -1.274551 2.469444 4.113643 23.324872 0.094000 2.575800 4.849900 17.788234 -2.074141 1.523687 -97.010561 5.265827 8.796598 19.447478 -20.844791 -3.215457 -0.276157 0.331944 -4.362687 20.127021 -12.757965 -4.818200 -7.125000 0.000000 0.000000 -4.787100 16.052000 3.288400 -12.585557 1.794682 0.732902 88.289041 -2.745846 18.995379 -47.144526 51.598168 -22.328136 0.121724 -0.007104 -9.384789 -4.426427 -59.256212 3.908100 7.125000 0.000000 0.000000 91.171500 -73.713200 -74.236500 
10.589823 15.231772 15.059189 174.433080 -1.109710 -162.572147 14.043171 5.897179 5.602768 6.604729 -19.490364 -66.907773 4.973971 17.739595 45.231179 3.363243 1.887522 -26.409809 6.027800 -14.455300 -45.093400 -18.173683 -6.548669 -10.010187 16.875200 6.362405 12.231887 -8.322187 -9.341151 44.251300 -6.969127 9.570245 -53.651369 -7.913500 16.055300 -52.250500 3.515243 -0.152708 -10.668728 3.181927 -0.665025 -0.928097 -3.446965 -0.711999 13.436632 -8.706950 3.596189 -1.369593 2.787198 4.063036 22.277251 0.187100 2.546400 4.636200 17.806235 -2.097418 1.469804 -96.612370 3.988422 9.059521 19.449296 -20.885606 -3.203741 -0.288837 0.308033 -4.161661 20.611583 -12.058826 -4.679400 -7.125000 0.000000 0.000000 -4.416500 16.770300 2.963300 -12.560585 1.717333 0.648198 88.560630 -1.836114 18.463731 -47.063187 51.599598 -22.251221 0.088537 0.028487 -9.132457 -0.386453 -64.215953 0.431800 7.125000 0.000000 0.000000 88.912100 72.346900 107.411100 
10.469178 15.209381 14.998764 174.316568 -1.480611 -162.114461 13.790258 5.843234 5.502517 6.290610 -18.980198 -69.016392 5.521245 18.459116 47.741256 2.852801 0.684809 -25.519717 6.430300 -14.832800 -46.685300 -17.998582 -6.456934 -10.038866 16.150232 6.162945 12.172419 -8.335507 -9.319640 44.189041 -6.924146 9.135279 -53.271950 -8.058600 16.162200 -52.773600 2.582556 -0.445976 -10.112393 3.243822 -0.859221 -0.556292 -2.839069 -0.863292 13.351413 -8.927793 3.568206 -1.462154 3.047063 4.013207 21.339667 0.256000 2.516100 4.446200 17.834109 -2.099047 1.420084 -96.120446 2.896708 9.607008 19.532231 -21.031971 -3.230570 -0.293315 0.284682 -3.986877 20.778068 -11.356128 -4.449900 -7.125000 0.000000 0.000000 -4.272200 17.525800 2.795200 -12.546280 1.645369 0.584017 88.952613 -1.151220 17.926718 -47.073568 51.662732 -22.315073 0.135348 -0.013185 -8.843948 -6.586606 -56.957801 5.636900 7.125000 0.000000 0.000000 82.854000 -74.463900 -66.583400 
10.367858 15.195987 14.924946 174.471386 -1.814197 -161.671587 13.577752 5.806189 5.400075 6.268192 -18.346279 -70.964298 6.042017 19.108714 50.059890 2.521441 -0.073026 -24.867286 6.613400 -14.997500 -47.396500 -17.904205 -6.406622 -10.031588 16.036226 6.219556 12.175106 -8.358213 -9.283935 43.977587 -6.905973 8.274833 -52.763288 -8.192000 16.258700 -53.251300 1.651339 -0.667553 -9.586614 3.442037 -0.977653 -0.289027 -2.121411 -0.977988 13.235358 -9.198214 3.619726 -1.324861 3.505658 3.963531 20.379810 0.365700 2.492000 4.206600 17.877995 -2.134312 1.376350 -95.523179 2.014341 10.388194 19.620382 -21.155874 -3.263269 -0.296344 0.281650 -3.875212 20.846659 -11.381372 -4.474700 -7.125000 0.000000 0.000000 -4.222200 17.496700 2.765000 -12.532862 1.580876 0.532566 89.252126 -1.146997 17.716267 -47.843483 52.040808 -22.925328 0.163435 -0.034350 -8.928365 -7.377272 -53.271993 6.044700 7.125000 0.000000 0.000000 69.462700 -74.104400 -53.330000 
10.256415 15.184945 14.858183 174.851995 -2.202842 -160.930514 13.382098 5.779973 5.278311 6.515354 -17.667176 -73.068505 6.498065 19.673537 52.068764 2.373203 -0.375879 -24.372312 6.190700 -14.610700 -45.742500 -17.900361 -6.406439 -9.961742 16.267646 6.366364 11.879617 -8.338851 -9.264193 43.705552 -6.775263 7.724714 -52.076411 -8.259100 16.306600 -53.490700 1.346747 -0.714789 -9.200376 3.489805 -0.996808 -0.171688 -1.844316 -1.004709 13.062389 -9.320131 3.522837 -1.453402 4.064609 3.729545 20.027533 0.469000 2.405500 4.142400 17.953858 -2.146406 1.358194 -94.688804 1.091905 11.196117 19.693110 -21.257198 -3.288563 -0.304236 0.295265 -3.553332 21.163971 -11.991112 -4.787600 -7.125000 0.000000 0.000000 -4.016100 16.806000 2.690100 -12.514967 1.552133 0.504366 89.799909 -1.308562 17.397068 -48.743243 52.475636 -23.636924 0.166267 -0.015318 -9.210865 -8.296178 -53.572301 6.817300 7.125000 0.000000 0.000000 70.136500 -74.534200 -54.436200 
10.136588 15.179527 14.793158 175.085213 -2.523659 -160.157728 13.225371 5.754215 5.160758 6.501728 -17.149779 -74.870061 6.888443 20.111738 53.685277 2.242080 -0.661468 -23.999594 5.587500 -14.016300 -43.302900 -17.904881 -6.388862 -9.872990 16.305409 6.615944 11.534353 -8.277671 -9.223461 43.513575 -6.466910 8.190969 -51.309981 -8.060600 16.163600 -52.780500 1.077900 -0.669814 -8.987649 3.379795 -0.912031 0.045729 -1.634294 -0.981937 13.097179 -9.189283 3.331541 -1.545358 4.335366 3.430371 19.482351 0.459600 2.270600 4.048200 18.042090 -2.155089 1.337473 -93.824825 -0.005737 12.073154 19.872021 -21.534397 -3.362644 -0.310184 0.308392 -3.216614 21.268888 -12.747743 -5.108500 -7.125000 0.000000 0.000000 -3.969000 15.979100 2.729700 -12.506116 1.511064 0.462955 90.479728 -1.292943 16.886447 -49.569397 52.874726 -24.294246 0.166083 0.006221 -9.533311 -8.889706 -54.335686 7.372900 7.125000 0.000000 0.000000 72.713900 -74.946100 -57.305600 
10.010627 15.183412 14.723838 175.012921 -2.750079 -159.660448 13.112057 5.725919 5.099408 6.020777 -17.045949 -76.063460 7.221097 20.409481 54.920242 2.036519 -1.171293 -23.748000 5.479500 -13.904200 -42.855000 -17.860067 -6.341325 -9.904043 15.917370 6.749202 11.644057 -8.199586 -9.052318 43.045343 -6.148697 8.706830 -50.391562 -7.834400 15.996100 -51.963800 0.674876 -0.603608 -8.854583 3.068062 -0.781708 0.585692 -1.444791 -0.947249 13.462045 -9.000083 3.144975 -1.691425 4.569562 3.165966 18.708073 0.432000 2.145100 3.928400 18.163007 -2.164512 1.316331 -92.840823 -1.529168 13.106502 20.044282 -21.827437 -3.435523 -0.314293 0.307582 -3.118085 21.235840 -13.068201 -5.222300 -7.125000 0.000000 0.000000 -4.002200 15.643700 2.781600 -12.507930 1.440652 0.398923 91.148066 -0.940061 16.402525 -50.104506 53.148253 -24.733073 0.174204 0.011729 -9.986916 -9.767835 -53.785343 8.043900 7.125000 0.000000 0.000000 70.359100 -75.147300 -55.329300 
9.884871 15.192716 14.655337 175.001432 -2.834070 -159.121168 13.034677 5.707174 5.042902 5.647074 -17.027402 -76.980410 7.479212 20.624056 55.842431 1.826500 -1.748440 -23.826079 5.629600 -14.059600 -43.476600 -17.851564 -6.312350 -9.923193 15.671984 7.072868 11.677540 -8.157310 -8.911025 42.550579 -5.955894 8.467489 -49.505488 -7.844900 16.004000 -52.002000 0.370877 -0.440816 -8.595956 2.760440 -0.535791 1.002641 -1.308096 -0.854878 13.599553 -8.894463 2.849935 -1.959048 4.933860 2.740024 18.390193 0.443100 1.955900 3.911900 18.279547 -2.146720 1.321737 -91.797436 -3.154549 14.319585 20.102173 -21.945961 -3.459684 -0.323248 0.303399 -3.001135 21.428058 -13.252635 -5.344700 -7.125000 0.000000 0.000000 -3.871500 15.432900 2.707900 -12.495177 1.378136 0.340675 91.740400 -0.274315 15.800459 -49.688160 53.017239 -24.398705 0.140997 0.036177 -10.191126 -6.648856 -57.851839 5.759900 7.125000 0.000000 0.000000 86.243700 -74.519300 -70.061900 
9.745414 15.216436 14.555447 175.432456 -2.236556 -159.173284 13.030526 5.677970 5.053476 5.390568 -16.691872 -76.549474 7.587284 20.695006 56.190855 1.666372 -2.285746 -24.428699 5.855100 -14.286500 -44.397500 -17.887368 -6.267558 -9.978062 15.900924 7.834885 12.279402 -8.135864 -8.679794 41.957995 -5.728576 8.366714 -48.455250 -7.781700 15.956300 -51.772400 0.482850 -0.058516 -7.887518 2.588351 -0.050800 1.532415 -1.342525 -0.612709 13.441503 -9.019266 2.513072 -2.263647 5.375590 2.243025 18.498735 0.509800 1.739500 3.972600 18.375648 -2.103901 1.335907 -90.947262 -4.374204 15.617264 20.270542 -22.231392 -3.543614 -0.331304 0.288660 -3.068814 21.493177 -13.075475 -5.290300 -7.125000 0.000000 0.000000 -3.812100 15.630000 2.650000 -12.494235 1.322505 0.297830 92.072428 0.422631 15.468921 -48.829238 52.686848 -23.761139 0.154593 0.011046 -10.135481 -8.157887 -55.462458 6.859500 7.125000 0.000000 0.000000 77.112800 -74.880800 -61.424900 
9.625587 15.243734 14.523957 175.601218 -2.518374 -158.231426 12.995899 5.684047 4.956087 5.506998 -16.836405 -77.809658 7.828737 20.890880 57.070436 1.339036 -3.258559 -24.858322 6.269700 -14.684700 -46.054900 -17.970571 -6.281509 -9.910640 16.035519 8.196573 11.799743 -8.063517 -8.589744 41.418917 -5.454801 8.169671 -47.376129 -7.551900 15.779600 -50.932200 0.229774 -0.057112 -7.144140 2.600438 -0.005032 1.481808 -1.147523 -0.595632 12.811825 -9.249037 2.290222 -2.493750 5.794149 1.899748 18.440705 0.601100 1.588100 3.979600 18.434460 -2.050847 1.350932 -90.164388 -5.449558 16.922937 20.572638 -22.706400 -3.690311 -0.337424 0.256375 -3.339492 21.459396 -12.319951 -4.979000 -7.125000 0.000000 0.000000 -3.797000 16.471300 2.570300 -12.476503 1.282285 0.259674 92.223276 0.640040 15.675376 -49.181455 52.861688 -24.050720 0.165728 -0.000101 -10.329620 -8.461062 -53.601194 6.955500 7.125000 0.000000 0.000000 70.206000 -74.606500 -54.581900 
